<?xml version="1.0" encoding="UTF-8" standalone="no"?>
<!-- Created with Inkscape (http://www.inkscape.org/) -->

<svg
   width="55.339191"
   height="52.217804"
   viewBox="0 0 14.641828 13.81596"
   version="1.1"
   id="svg5"
   xml:space="preserve"
   inkscape:version="1.3.2 (091e20e, 2023-11-25)"
   sodipodi:docname="Nav_Icon_Bug-BmYON1mh.svg"
   xmlns:inkscape="http://www.inkscape.org/namespaces/inkscape"
   xmlns:sodipodi="http://sodipodi.sourceforge.net/DTD/sodipodi-0.dtd"
   xmlns="http://www.w3.org/2000/svg"
   xmlns:svg="http://www.w3.org/2000/svg"><sodipodi:namedview
     id="namedview7"
     pagecolor="#505050"
     bordercolor="#ffffff"
     borderopacity="1"
     inkscape:showpageshadow="0"
     inkscape:pageopacity="0"
     inkscape:pagecheckerboard="1"
     inkscape:deskcolor="#505050"
     inkscape:document-units="px"
     showgrid="false"
     showguides="false"
     inkscape:zoom="3.5496699"
     inkscape:cx="17.466413"
     inkscape:cy="23.945889"
     inkscape:window-width="1312"
     inkscape:window-height="449"
     inkscape:window-x="0"
     inkscape:window-y="25"
     inkscape:window-maximized="0"
     inkscape:current-layer="layer1" /><defs
     id="defs2"><inkscape:path-effect
       effect="tiling"
       id="path-effect6139"
       is_visible="false"
       lpeversion="1"
       unit="px"
       seed="1;1"
       lpesatellites=""
       num_rows="2"
       num_cols="1"
       gapx="0"
       gapy="-18"
       offset="104"
       offset_type="false"
       scale="0"
       rotate="0"
       mirrorrowsx="false"
       mirrorrowsy="false"
       mirrorcolsx="false"
       mirrorcolsy="false"
       mirrortrans="false"
       shrink_interp="false"
       split_items="false"
       link_styles="false"
       interpolate_scalex="false"
       interpolate_scaley="true"
       interpolate_rotatex="false"
       interpolate_rotatey="true"
       random_scale="false"
       random_rotate="false"
       random_gap_y="false"
       random_gap_x="false"
       transformorigin="rotate(15,185.64341,73.633294)" /></defs><g
     inkscape:label="Layer 1"
     inkscape:groupmode="layer"
     id="layer1"
     transform="translate(-149.46057,-103.54697)"><g
       id="g6137"
       transform="matrix(0.5367099,0,0,0.5367099,90.481195,39.74558)"
       inkscape:path-effect="#path-effect6139"
       class="UnoptimicedTransforms"><path
         id="rect2743"
         style="fill:#ffffff;stroke-width:2.7304;stop-color:#000000"
         d="M 118.73523 118.87596 A 0.77532642 0.77532642 0 0 0 117.96111 119.65009 A 0.77532642 0.77532642 0 0 0 118.22781 120.1989 C 119.01895 119.83496 119.85387 119.55057 120.72252 119.35449 C 120.18641 119.06421 119.52838 118.87809 118.73619 118.87596 L 118.73523 118.87596 z M 128.32605 118.87596 C 127.53386 118.8781 126.87583 119.06422 126.33972 119.35449 C 127.20868 119.55064 128.04304 119.83573 128.83443 120.19987 A 0.77532641 0.77532641 0 0 0 129.10113 119.65009 A 0.77532641 0.77532641 0 0 0 128.32605 118.87596 z M 123.53112 123.32235 C 122.28985 123.32235 121.11239 123.59323 120.05143 124.07529 C 119.01883 124.61469 118.07087 125.38398 118.07087 126.63932 C 118.07087 127.00677 118.13483 127.35935 118.25285 127.68496 A 9.7561878 9.3193438 0 0 0 116.0181 129.59716 C 115.81192 129.49433 115.63542 129.3863 115.47602 129.27557 C 115.23668 130.05689 115.10726 130.88649 115.10726 131.74621 C 115.10726 133.59536 115.70312 135.30488 116.71327 136.69423 L 118.74582 134.24574 A 2.7283762 2.7283762 0 0 1 116.29732 131.56231 A 2.7283762 2.7283762 0 0 1 119.02504 128.83363 A 2.7283762 2.7283762 0 0 1 121.6324 130.767 L 127.13021 124.14365 C 127.08901 124.12121 127.04945 124.09599 127.00793 124.07432 C 125.94751 123.59284 124.77161 123.32235 123.53112 123.32235 z M 129.30911 128.04988 L 120.9382 138.13367 A 1.8741319 1.8741319 0 0 1 121.10862 138.90683 A 1.8741319 1.8741319 0 0 1 120.88621 139.74354 C 121.71831 140.01862 122.60678 140.17007 123.53112 140.17007 C 125.2318 140.17007 126.81328 139.6648 128.13733 138.79803 A 2.7283762 2.7283762 0 0 1 125.49531 136.08283 A 2.7283762 2.7283762 0 0 1 128.22399 133.35511 A 2.7283762 2.7283762 0 0 1 130.90934 135.81131 C 131.57501 134.6058 131.95498 133.22071 131.95498 131.74621 C 131.95498 130.88721 131.82131 130.06016 131.58237 129.27942 C 131.42716 129.38713 131.25623 129.49186 131.05666 129.59234 A 9.7561878 9.3193438 0 0 0 129.30911 128.04988 z M 111.06912 134.23226 C 110.57443 134.8818 110.19155 135.76172 109.90986 136.91183 A 0.68014503 0.68014503 0 0 0 110.40861 137.7341 A 0.68014503 0.68014503 0 0 0 111.23087 137.23631 C 111.34053 136.78862 111.45873 136.4118 111.5852 136.08764 C 111.36754 135.48901 111.19547 134.86901 111.06912 134.23226 z M 135.97194 134.33913 C 135.83967 134.97684 135.65862 135.59669 135.43468 136.19548 C 135.55788 136.49303 135.67436 136.8345 135.78322 137.23438 A 0.70668501 0.70668501 0 0 0 136.65074 137.73024 A 0.70668501 0.70668501 0 0 0 137.1466 136.86176 C 136.85703 135.79816 136.46354 134.96921 135.97194 134.33913 z M 134.12137 138.76626 C 133.82325 139.21506 133.49624 139.64248 133.14505 140.04876 C 133.41885 140.28464 133.61402 140.49886 133.73238 140.70734 C 134.03322 141.2372 134.08834 142.01278 133.99427 143.68924 A 0.79729497 0.79729497 0 0 0 134.74432 144.52884 A 0.79729497 0.79729497 0 0 0 135.58584 143.77975 C 135.68264 142.05542 135.68823 140.92256 135.11887 139.91974 C 134.87065 139.48255 134.54032 139.1181 134.12137 138.76626 z M 113.0439 138.91935 C 112.19786 140.15796 111.9398 141.7019 112.18312 143.60163 A 0.79729497 0.79729497 0 0 0 113.07663 144.29102 A 0.79729497 0.79729497 0 0 0 113.76602 143.39847 C 113.58735 142.0035 113.7097 141.04828 114.10205 140.26251 C 113.71997 139.83977 113.367 139.39079 113.0439 138.91935 z M 118.15752 143.26078 A 9.7561878 9.3193438 0 0 0 121.4071 144.61742 L 121.45428 144.28139 C 120.2948 144.09071 119.18872 143.74283 118.15752 143.26078 z M 128.90086 143.26271 C 127.87033 143.74409 126.76558 144.09094 125.607 144.28139 L 125.65418 144.61742 A 9.7561878 9.3193438 0 0 0 128.90086 143.26271 z "
         inkscape:original-d="M 118.73523 118.87596 A 0.77532642 0.77532642 0 0 0 117.96111 119.65009 A 0.77532642 0.77532642 0 0 0 118.22781 120.1989 C 119.01895 119.83496 119.85387 119.55057 120.72252 119.35449 C 120.18641 119.06421 119.52838 118.87809 118.73619 118.87596 L 118.73523 118.87596 z M 128.32605 118.87596 C 127.53386 118.8781 126.87583 119.06422 126.33972 119.35449 C 127.20868 119.55064 128.04304 119.83573 128.83443 120.19987 A 0.77532641 0.77532641 0 0 0 129.10113 119.65009 A 0.77532641 0.77532641 0 0 0 128.32605 118.87596 z M 123.53112 123.32235 C 122.28985 123.32235 121.11239 123.59323 120.05143 124.07529 C 119.01883 124.61469 118.07087 125.38398 118.07087 126.63932 C 118.07087 127.00677 118.13483 127.35935 118.25285 127.68496 A 9.7561878 9.3193438 0 0 0 116.0181 129.59716 C 115.81192 129.49433 115.63542 129.3863 115.47602 129.27557 C 115.23668 130.05689 115.10726 130.88649 115.10726 131.74621 C 115.10726 133.59536 115.70312 135.30488 116.71327 136.69423 L 118.74582 134.24574 A 2.7283762 2.7283762 0 0 1 116.29732 131.56231 A 2.7283762 2.7283762 0 0 1 119.02504 128.83363 A 2.7283762 2.7283762 0 0 1 121.6324 130.767 L 127.13021 124.14365 C 127.08901 124.12121 127.04945 124.09599 127.00793 124.07432 C 125.94751 123.59284 124.77161 123.32235 123.53112 123.32235 z M 129.30911 128.04988 L 120.9382 138.13367 A 1.8741319 1.8741319 0 0 1 121.10862 138.90683 A 1.8741319 1.8741319 0 0 1 120.88621 139.74354 C 121.71831 140.01862 122.60678 140.17007 123.53112 140.17007 C 125.2318 140.17007 126.81328 139.6648 128.13733 138.79803 A 2.7283762 2.7283762 0 0 1 125.49531 136.08283 A 2.7283762 2.7283762 0 0 1 128.22399 133.35511 A 2.7283762 2.7283762 0 0 1 130.90934 135.81131 C 131.57501 134.6058 131.95498 133.22071 131.95498 131.74621 C 131.95498 130.88721 131.82131 130.06016 131.58237 129.27942 C 131.42716 129.38713 131.25623 129.49186 131.05666 129.59234 A 9.7561878 9.3193438 0 0 0 129.30911 128.04988 z M 111.06912 134.23226 C 110.57443 134.8818 110.19155 135.76172 109.90986 136.91183 A 0.68014503 0.68014503 0 0 0 110.40861 137.7341 A 0.68014503 0.68014503 0 0 0 111.23087 137.23631 C 111.34053 136.78862 111.45873 136.4118 111.5852 136.08764 C 111.36754 135.48901 111.19547 134.86901 111.06912 134.23226 z M 135.97194 134.33913 C 135.83967 134.97684 135.65862 135.59669 135.43468 136.19548 C 135.55788 136.49303 135.67436 136.8345 135.78322 137.23438 A 0.70668501 0.70668501 0 0 0 136.65074 137.73024 A 0.70668501 0.70668501 0 0 0 137.1466 136.86176 C 136.85703 135.79816 136.46354 134.96921 135.97194 134.33913 z M 134.12137 138.76626 C 133.82325 139.21506 133.49624 139.64248 133.14505 140.04876 C 133.41885 140.28464 133.61402 140.49886 133.73238 140.70734 C 134.03322 141.2372 134.08834 142.01278 133.99427 143.68924 A 0.79729497 0.79729497 0 0 0 134.74432 144.52884 A 0.79729497 0.79729497 0 0 0 135.58584 143.77975 C 135.68264 142.05542 135.68823 140.92256 135.11887 139.91974 C 134.87065 139.48255 134.54032 139.1181 134.12137 138.76626 z M 113.0439 138.91935 C 112.19786 140.15796 111.9398 141.7019 112.18312 143.60163 A 0.79729497 0.79729497 0 0 0 113.07663 144.29102 A 0.79729497 0.79729497 0 0 0 113.76602 143.39847 C 113.58735 142.0035 113.7097 141.04828 114.10205 140.26251 C 113.71997 139.83977 113.367 139.39079 113.0439 138.91935 z M 118.15752 143.26078 A 9.7561878 9.3193438 0 0 0 121.4071 144.61742 L 121.45428 144.28139 C 120.2948 144.09071 119.18872 143.74283 118.15752 143.26078 z M 128.90086 143.26271 C 127.87033 143.74409 126.76558 144.09094 125.607 144.28139 L 125.65418 144.61742 A 9.7561878 9.3193438 0 0 0 128.90086 143.26271 z " /></g><path
       d="m 150.48953,110.45495 c 0,-3.47495 2.81701,-6.29195 6.29197,-6.29195 3.47493,0 6.29194,2.817 6.29194,6.29195 0,3.47495 -2.81701,6.29195 -6.29194,6.29195 -3.47496,0 -6.29197,-2.817 -6.29197,-6.29195 z m 6.29197,5.06288 c 2.79615,0 5.06288,-2.26673 5.06288,-5.06288 0,-1.34517 -0.5246,-2.56781 -1.38038,-3.47449 l -6.41982,7.73434 c 0.78923,0.50818 1.72883,0.80303 2.73732,0.80303 z m 2.73729,-9.32272 c -0.78923,-0.5082 -1.72885,-0.80305 -2.73731,-0.80305 -2.79616,0 -5.06289,2.26673 -5.06289,5.06289 0,1.34516 0.5246,2.5678 1.38038,3.47449 z"
       fill="#ff0000"
       stroke="#ff0000"
       id="path2"
       style="stroke-width:0;fill:#ffffff;fill-opacity:1;stroke:#ffffff;stroke-opacity:1;stroke-dasharray:none" /></g></svg>
