<?xml version="1.0" encoding="UTF-8" standalone="no"?>
<!-- Created with Inkscape (http://www.inkscape.org/) -->

<svg
   width="161.49153mm"
   height="165.35956mm"
   viewBox="0 0 161.49153 165.35956"
   version="1.1"
   id="svg1"
   inkscape:version="1.3.2 (091e20e, 2023-11-25)"
   sodipodi:docname="unknown.svg"
   xmlns:inkscape="http://www.inkscape.org/namespaces/inkscape"
   xmlns:sodipodi="http://sodipodi.sourceforge.net/DTD/sodipodi-0.dtd"
   xmlns="http://www.w3.org/2000/svg"
   xmlns:svg="http://www.w3.org/2000/svg">
  <sodipodi:namedview
     id="namedview1"
     pagecolor="#1c1c1c"
     bordercolor="#000000"
     borderopacity="0.18823529"
     inkscape:showpageshadow="2"
     inkscape:pageopacity="0.0"
     inkscape:pagecheckerboard="true"
     inkscape:deskcolor="#464646"
     inkscape:document-units="mm"
     inkscape:zoom="0.23086382"
     inkscape:cx="355.18775"
     inkscape:cy="472.13981"
     inkscape:window-width="1440"
     inkscape:window-height="801"
     inkscape:window-x="0"
     inkscape:window-y="25"
     inkscape:window-maximized="0"
     inkscape:current-layer="layer1" />
  <defs
     id="defs1" />
  <g
     inkscape:label="Layer 1"
     inkscape:groupmode="layer"
     id="layer1"
     transform="translate(-22.456205,-71.442145)">
    <path
       d="m 33.721365,181.12346 q -2.333503,0.787 -5.9387,-4.12314 -3.549966,-5.0216 -5.264504,-10.10529 -0.393498,-1.16675 1.712196,-3.45485 2.077592,-2.37142 6.962578,-5.22559 4.856877,-2.9375 11.023989,-5.01743 23.918388,-8.06675 29.53982,8.60111 1.602108,4.75034 0.782463,8.92516 -0.764408,4.06338 -2.980571,6.57437 -4.54377,4.96673 -9.182667,6.62407 l -1.888698,0.7298 q 0.309183,0.91674 1.400447,2.77636 1.09127,1.8596 1.597197,3.35971 0.449716,1.33343 -3.880982,3.62937 -4.275467,2.1845 -7.609042,3.30879 -5.0837,1.71453 -7.177002,-0.36405 -2.009967,-2.10666 -4.736361,-10.19058 -0.646466,-1.91681 6.211539,-5.25075 2.526323,-1.31613 4.24343,-3.38034 1.800449,-2.09232 1.013447,-4.42582 -0.787001,-2.33351 -4.537269,-1.06868 -3.750271,1.26481 -7.270774,4.58697 -3.437161,3.29407 -4.020536,3.49081 z m 20.729422,18.25548 q 5.667073,-1.91128 9.17322,-1.42305 3.478038,0.40492 5.023933,4.98858 2.529642,7.50055 -9.137865,11.43554 -11.667504,3.93501 -14.197149,-3.56553 -2.529645,-7.50055 9.137861,-11.43554 z"
       id="text1"
       style="font-size:50.8px;font-family:'Titan One';-inkscape-font-specification:'Titan One, Normal';text-align:center;text-anchor:middle;display:inline;opacity:1;fill:#ffffff;fill-opacity:1;stroke:#ffffff;stroke-width:0;stroke-linecap:round"
       aria-label="?"
       inkscape:label="text1" />
    <path
       d="M 80.874943,118.37031 Q 75.695,117.82425 73.097182,105.20484 70.703863,92.419943 71.893491,81.13507 q 0.273029,-2.589971 6.3395,-5.130372 6.085973,-2.725397 17.994365,-3.901739 11.927894,-1.361339 25.617744,0.08181 53.0944,5.597098 49.19398,42.596681 -1.11162,10.54488 -6.37066,17.84674 -5.05453,7.13636 -11.53001,10.00776 -13.11643,5.53828 -23.49582,4.63116 l -4.27445,-0.26356 q -0.21453,2.03499 0.24242,6.57245 0.45693,4.53745 0.10589,7.86742 -0.31203,2.95996 -10.66243,3.55233 -10.14591,0.42687 -17.54582,-0.35322 -11.284869,-1.18962 -13.474772,-7.03209 -2.004908,-5.82297 -0.113206,-23.76777 0.448548,-4.25495 16.572878,-4.61274 6.01745,-0.30093 11.13943,-2.75383 5.30698,-2.43342 5.85304,-7.61336 0.54606,-5.17994 -7.77886,-6.05754 -8.3249,-0.87759 -18.02334,2.40226 -9.513442,3.29935 -10.808427,3.16284 z m 23.740097,53.38126 q 12.57985,1.32614 18.88874,5.35817 6.32839,3.84704 5.25578,14.02193 -1.75519,16.64983 -27.6549,13.91954 -25.899698,-2.73029 -24.144508,-19.38012 1.755188,-16.64981 27.654888,-13.91952 z"
       id="text1-2"
       style="font-size:50.8px;font-family:'Titan One';-inkscape-font-specification:'Titan One, Normal';text-align:center;text-anchor:middle;display:inline;fill:#ffffff;fill-opacity:1;stroke:#ffffff;stroke-width:0;stroke-linecap:round"
       aria-label="?"
       inkscape:label="text1" />
    <path
       d="m 138.99543,192.01626 q -2.48037,-0.66965 -2.76225,-7.01848 -0.16942,-6.41351 1.28947,-11.8172 0.33482,-1.24019 3.48753,-2.00475 3.17662,-0.85316 9.06837,-0.49811 5.91568,0.26649 12.47098,2.03622 25.42392,6.86374 20.64084,24.58076 -1.36318,5.04936 -4.49367,8.19596 -3.01798,3.08193 -6.39569,3.97584 -6.82007,1.67532 -11.80475,0.42464 l -2.06138,-0.46147 q -0.26306,0.97443 -0.3941,3.22006 -0.13095,2.24562 -0.56152,3.84014 -0.38265,1.41737 -5.47007,0.89929 -4.97492,-0.58275 -8.51833,-1.53937 -5.40369,-1.45885 -6.01501,-4.47513 -0.52272,-2.99237 1.79708,-11.58512 0.55005,-2.03747 8.43143,-0.95517 2.95431,0.32237 5.64016,-0.4732 2.77444,-0.77164 3.44409,-3.25203 0.66962,-2.48037 -3.31671,-3.55658 -3.98632,-1.07619 -8.96563,-0.2345 -4.89074,0.8656 -5.51084,0.6982 z m 7.40288,27.84987 q 6.02379,1.62624 8.78237,4.08172 2.7825,2.36691 1.46717,7.23909 -2.1524,7.97269 -14.55431,4.62454 -12.40193,-3.34818 -10.24954,-11.32085 2.1524,-7.97266 14.55431,-4.6245 z"
       id="text1-9"
       style="font-size:50.8px;font-family:'Titan One';-inkscape-font-specification:'Titan One, Normal';text-align:center;text-anchor:middle;display:inline;fill:#ffffff;fill-opacity:1;stroke:#ffffff;stroke-width:0;stroke-linecap:round"
       aria-label="?"
       inkscape:label="text1" />
  </g>
</svg>
